<svg xmlns="http://www.w3.org/2000/svg" xmlns:xlink="http://www.w3.org/1999/xlink" width="500" zoomAndPan="magnify" viewBox="0 0 375 374.999991" height="500" preserveAspectRatio="xMidYMid meet" version="1">
  <defs>
    <g />
  </defs>
  
  <g id="letter-M" fill="#38b6ff" fill-opacity="1">
    <g transform="translate(96.5,230.4)">
      <g>
        <path d="M 48.1 -33.4 C 51.7 -33.4 54.6 -32.3 56.7 -30 C 58.9 -27.7 60 -24.6 60 -20.8 L 60 0 L 49.1 0 L 49.1 -17.7 C 49.1 -19.5 48.6 -21 47.6 -22.1 C 46.7 -23.2 45.4 -23.7 43.7 -23.7 C 41.8 -23.7 40.3 -23 39.1 -21.6 C 38 -20.2 37.5 -18.5 37.5 -16.3 L 37.5 0 L 26.6 0 L 26.6 -17.7 C 26.6 -19.5 26.1 -21 25.2 -22.1 C 24.2 -23.2 22.9 -23.7 21.2 -23.7 C 19.3 -23.7 17.8 -23 16.6 -21.6 C 15.5 -20.2 14.9 -18.5 14.9 -16.3 L 14.9 0 L 4.1 0 L 4.1 -33 L 14.9 -33 L 14.9 -27.5 C 16.1 -29.5 17.5 -30.9 19.3 -31.9 C 21.2 -32.9 23.3 -33.4 25.7 -33.4 C 28.3 -33.4 30.6 -32.7 32.5 -31.4 C 34.4 -30.1 35.8 -28.3 36.6 -26 C 37.7 -28.5 39.2 -30.3 41.2 -31.5 C 43.1 -32.8 45.5 -33.4 48.1 -33.4 Z M 48.1 -33.4" />
      </g>
    </g>
  </g>
  <g id="letter-E" fill="#38b6ff" fill-opacity="1">
    <g transform="translate(158.5,230.4)">
      <g>
        <path d="M 18.6 -33.3 C 24 -33.3 28.1 -31.7 31 -28.6 C 33.9 -25.4 35.3 -21.1 35.3 -15.5 C 35.3 -14.7 35.3 -14 35.3 -13.6 L 12.4 -13.6 C 12.9 -11.7 13.8 -10.3 15.1 -9.3 C 16.4 -8.3 18 -7.8 19.9 -7.8 C 21.3 -7.8 22.7 -8.1 24 -8.6 C 25.3 -9.2 26.5 -10.1 27.6 -11.2 L 33.3 -5.5 C 31.6 -3.6 29.5 -2.1 27.1 -1.1 C 24.7 -0.1 21.9 0.4 18.9 0.4 C 15.4 0.4 12.3 -0.3 9.6 -1.7 C 7 -3.1 5 -5 3.6 -7.5 C 2.2 -10.1 1.5 -13 1.5 -16.3 C 1.5 -19.7 2.2 -22.7 3.6 -25.3 C 5 -27.8 7 -29.8 9.6 -31.2 C 12.2 -32.6 15.2 -33.3 18.6 -33.3 Z M 24.8 -19.4 C 24.8 -21.3 24.2 -22.8 23.1 -24 C 22 -25.1 20.5 -25.7 18.7 -25.7 C 17 -25.7 15.6 -25.1 14.4 -24 C 13.3 -22.9 12.5 -21.3 12.1 -19.4 Z M 24.8 -19.4" />
      </g>
    </g>
  </g>
  <g id="letter-R" fill="#38b6ff" fill-opacity="1">
    <g transform="translate(194,230.4)">
      <g>
        <path d="M 15 -27.5 C 16.1 -29.4 17.6 -30.8 19.4 -31.9 C 21.2 -32.9 23.3 -33.4 25.6 -33.4 L 25.6 -23.5 C 25.2 -23.5 24.7 -23.5 24 -23.5 C 21.4 -23.5 19.3 -22.9 17.7 -21.7 C 16.1 -20.5 15.2 -18.9 15 -16.8 L 15 0 L 4.1 0 L 4.1 -33 L 15 -33 Z M 15 -27.5" />
      </g>
    </g>
  </g>
  <g id="letter-T" fill="#38b6ff" fill-opacity="1">
    <g transform="translate(219,230.4)">
      <g>
        <path d="M 25.6 -1.7 C 24.4 -1 23 -0.5 21.4 -0.1 C 19.8 0.3 18.2 0.5 16.6 0.5 C 13.3 0.5 10.7 -0.4 8.7 -2.3 C 6.7 -4.2 5.7 -6.8 5.7 -10 L 5.7 -24.2 L 1.1 -24.2 L 1.1 -31.4 L 5.7 -31.4 L 5.7 -40.5 L 16.5 -40.5 L 16.5 -31.4 L 25 -31.4 L 25 -24.2 L 16.5 -24.2 L 16.5 -10.8 C 16.5 -9.7 16.9 -8.8 17.7 -8 C 18.6 -7.2 19.6 -6.8 20.9 -6.8 C 21.5 -6.8 22 -6.9 22.4 -7.1 C 22.8 -7.3 23.4 -7.6 24.1 -8 L 25.6 -1.7 Z M 25.6 -1.7" />
      </g>
    </g>
  </g>
  <g id="letter-A2" fill="#38b6ff" fill-opacity="1">
    <g transform="translate(244.1,230.4)">
      <g>
        <path d="M 19 -33.4 C 23.6 -33.4 27.1 -32.3 29.6 -30.3 C 32.1 -28.2 33.4 -25.2 33.5 -21.5 L 33.5 0 L 22.8 0 L 22.8 -3.7 C 20.6 -0.9 17.3 0.5 12.9 0.5 C 9.4 0.5 6.6 -0.5 4.6 -2.3 C 2.6 -4.2 1.6 -6.7 1.6 -9.8 C 1.6 -12.9 2.7 -15.4 4.8 -17.1 C 7 -18.9 10.1 -19.8 14.2 -19.8 L 22.8 -19.8 L 22.8 -20.2 C 22.8 -21.8 22.3 -23 21.2 -23.8 C 20.1 -24.7 18.5 -25.1 16.5 -25.1 C 15.1 -25.1 13.6 -24.9 11.8 -24.4 C 10.1 -24 8.4 -23.3 6.6 -22.5 L 3.7 -29.8 C 6.3 -31 8.9 -31.9 11.4 -32.5 C 13.8 -33.1 16.4 -33.4 19 -33.4 Z M 16.2 -6.9 C 17.8 -6.9 19.3 -7.3 20.5 -8.1 C 21.7 -8.9 22.5 -9.9 22.8 -11.2 L 22.8 -14 L 16.3 -14 C 13.3 -14 11.8 -12.9 11.8 -10.6 C 11.8 -9.5 12.2 -8.6 13 -7.9 C 13.7 -7.2 14.8 -6.9 16.2 -6.9 Z M 16.2 -6.9" />

      </g>
    </g>
  </g>
  <g id="letter-V" fill="#005778" fill-opacity="1">
    <g transform="translate(279.8,230.4)">
      <g>
        <path d="M 16.5 0 L -0.1 -42.7 L 11.9 -42.7 L 22.5 -11.8 L 33.3 -42.7 L 44.7 -42.7 L 28 0 Z M 16.5 0" />

      </g>
    </g>
  </g>
  <g id="letter-A" fill="#38b6ff" fill-opacity="1">
    <g transform="translate(50.6,230.4)">
      <g>
        <path d="M 47.4 0 L 35.5 0 L 32.6 -7.6 L 14.1 -7.6 L 11.2 0 L -0.3 0 L 18 -42.7 L 29.5 -42.7 Z M 23.5 -31.3 L 17.5 -16.1 L 29.3 -16.1 Z M 23.5 -31.3" />
      </g>
    </g>
  </g>
</svg>